<?xml version="1.0" encoding="utf-8"?>
<!-- Generator: Adobe Illustrator 27.8.0, SVG Export Plug-In . SVG Version: 6.00 Build 0)  -->
<svg version="1.1" id="Layer_1" xmlns="http://www.w3.org/2000/svg" xmlns:xlink="http://www.w3.org/1999/xlink" x="0px" y="0px"
	 viewBox="0 0 100 99" style="enable-background:new 0 0 100 99;" xml:space="preserve">
<style type="text/css">
	.st0{fill:#FFFFFF;}
</style>
<path class="st0" d="M69.6,57.4c-1.5-1.1-4.4-2.5-12.9-2.8v-5.8c5.6-2.4,9.2-7.7,9.2-14.2c0-8.7-7.1-15.7-15.7-15.7
	S34.5,26,34.5,34.6c0,6.2,3.1,11.5,8.1,14.1c0,3.2,0,8,0,10.1c0,0.7,0,1.1,0,1.6c-0.8-0.6-1.8-1.2-3.1-1.6c-1.2-0.4-2.8-0.7-4.4-0.7
	c-1.2,0-3,0.2-4.6,0.8c-2.3,1-3.7,3-3.7,5.4c0,4.5,3.6,6,5.4,6.8c0.4,0.2,1,0.5,1.1,0.6c1.3,1.1,2.7,4,4.1,6.4
	c2.5,4.7,5.1,9.6,9.5,10.8c1.7,0.5,5.6,0.6,7.1,0.6c12.5,0,14.8-2.5,15.6-3.6c3.9-4.5,4-15.8,3.4-20.5
	C72.5,61.3,71.5,58.7,69.6,57.4z M38.3,34.5c0-6.5,5.3-11.9,11.9-11.9s11.9,5.3,11.9,11.9c0,4.3-2,8-5.4,10c-0.5-3.5-3.5-6.1-7-6.1
	c-3.4,0-6.3,2.5-7,5.8C39.9,41.9,38.3,38.6,38.3,34.5z M66.7,83.4c-1.4,1.7-7.7,2.2-12.6,2.2c-2.8,0-5.3-0.2-6-0.4
	c-5-1.4-7.8-12.7-12.2-16.4c-1.8-1.6-5.2-1.5-5.2-4.5c0-1.7,2.3-2.4,4.4-2.4c1.2,0,2.4,0.2,3.2,0.5c2.6,0.8,3.8,3,6,3
	s2.2-5.1,2.2-6.8c-0.1-3.3,0-13.1,0-13.1c0-1.8,1.4-3.3,3.3-3.3c1.9,0,3.3,1.4,3.3,3.3v12.8c0.2,0,0.4,0,0.7,0
	c5.1,0,11.5,0.4,13.9,2.2C70.4,62.7,70,79.4,66.7,83.4z"/>
<path class="st0" d="M33.4,54.2c0.4,0.3,0.8,0.5,1.2,0.5c0.6,0,1-0.2,1.4-0.7c0.7-0.8,0.6-2-0.2-2.6c-4.8-4.2-7.5-10.2-7.5-16.5
	c0-12,9.7-21.7,21.7-21.7s21.7,9.7,21.7,21.7c0,5.5-2.1,10.8-5.8,14.7c-0.8,0.8-0.7,2,0.1,2.6c0.8,0.7,2,0.7,2.6-0.1
	c4.3-4.7,6.8-10.8,6.8-17.3C75.5,20.8,64.1,9.4,50,9.4S24.5,20.8,24.5,34.9C24.5,42.3,27.7,49.4,33.4,54.2z"/>
</svg>
