<?xml version="1.0" encoding="utf-8"?>
<!-- Generator: Adobe Illustrator 27.8.0, SVG Export Plug-In . SVG Version: 6.00 Build 0)  -->
<svg version="1.1" id="Layer_1" xmlns="http://www.w3.org/2000/svg" xmlns:xlink="http://www.w3.org/1999/xlink" x="0px" y="0px"
	 viewBox="0 0 14 14.5" style="enable-background:new 0 0 14 14.5;" xml:space="preserve">
<g>
	<path d="M6.74,13.76c-3.47,0-6.29-2.82-6.29-6.29s2.82-6.29,6.29-6.29c3.47,0,6.29,2.82,6.29,6.29S10.2,13.76,6.74,13.76z
		 M6.74,1.76c-3.15,0-5.71,2.56-5.71,5.71c0,3.15,2.56,5.71,5.71,5.71s5.71-2.56,5.71-5.71C12.45,4.32,9.89,1.76,6.74,1.76z"/>
	<g>
		<g>
			<path d="M6.38,5.24v-0.9h0.61v0.9H6.38z M6.38,10.91V6.22h0.61v4.69H6.38z"/>
		</g>
	</g>
</g>
</svg>
