<?xml version="1.0" encoding="utf-8"?>
<!-- Generator: Adobe Illustrator 27.8.0, SVG Export Plug-In . SVG Version: 6.00 Build 0)  -->
<svg version="1.1" id="Layer_1" xmlns="http://www.w3.org/2000/svg" xmlns:xlink="http://www.w3.org/1999/xlink" x="0px" y="0px"
	 viewBox="0 0 49.3 71.3" style="enable-background:new 0 0 49.3 71.3;" xml:space="preserve">
<g>
	<path d="M43.9,33.9c1.3-2.7,2.1-5.8,2.1-9c0-11.4-9.3-20.7-20.7-20.7S4.6,13.5,4.6,24.9c0,3.2,0.8,6.3,2.1,9c0,0,0.4,0.9,0.5,1
		l18.1,33.5l17.9-33C43.4,35,43.9,33.9,43.9,33.9z M25.3,14.6c5.7,0,10.3,4.6,10.3,10.3S31,35.3,25.3,35.3S15,30.7,15,25
		S19.6,14.6,25.3,14.6z"/>
</g>
</svg>
