<?xml version="1.0" encoding="utf-8"?>
<!-- Generator: Adobe Illustrator 27.8.0, SVG Export Plug-In . SVG Version: 6.00 Build 0)  -->
<svg version="1.1" id="Layer_1" xmlns="http://www.w3.org/2000/svg" xmlns:xlink="http://www.w3.org/1999/xlink" x="0px" y="0px"
	 viewBox="0 0 110 103.2" style="enable-background:new 0 0 110 103.2;" xml:space="preserve">
<style type="text/css">
	.st0{fill-rule:evenodd;clip-rule:evenodd;}
</style>
<path class="st0" d="M24.3,26.8v-7.5c0-8.2,6.7-14.9,14.9-14.9h31.6c8.2,0,14.9,6.7,14.9,14.9v7.5h1.8c8.2,0,14.9,6.7,14.9,14.9
	v24.2c0,8.2-6.7,14.9-14.9,14.9h-1.8v3.7c0,8.2-6.7,14.9-14.9,14.9H39.2c-8.2,0-14.9-6.7-14.9-14.9v-3.7h-1.8
	c-8.2,0-14.9-6.7-14.9-14.9V41.7c0-8.2,6.7-14.9,14.9-14.9L24.3,26.8z M42.1,84.8H55c2.2,0,4.1-1.8,4.1-4.1s-1.8-4.1-4.1-4.1H42.1
	c-2.2,0-4.1,1.8-4.1,4.1C38,83,39.9,84.8,42.1,84.8z M42.1,72.6h25.8c2.2,0,4.1-1.8,4.1-4.1c0-2.2-1.8-4.1-4.1-4.1H42.1
	c-2.2,0-4.1,1.8-4.1,4.1S39.9,72.6,42.1,72.6z M87.6,72.7c3.7,0,6.8-3.1,6.8-6.8V41.7c0-3.7-3.1-6.8-6.8-6.8l-65.1,0
	c-3.7,0-6.8,3.1-6.8,6.8v24.2c0,3.7,3.1,6.8,6.8,6.8h1.8l0-18.9c0-2.2,1.8-4.1,4.1-4.1l53.3,0c2.3,0,4.1,1.8,4.1,4.1v18.9L87.6,72.7
	L87.6,72.7z M32.4,84.5c0,3.7,3.1,6.8,6.8,6.8h31.6c3.7,0,6.8-3.1,6.8-6.8V57.9l-45.2,0L32.4,84.5z M32.4,26.8h45.2v-7.5
	c0-3.7-3.1-6.8-6.8-6.8H39.2c-3.7,0-6.8,3.1-6.8,6.8L32.4,26.8z"/>
</svg>
