<?xml version="1.0" encoding="utf-8"?>
<!-- Generator: Adobe Illustrator 27.8.0, SVG Export Plug-In . SVG Version: 6.00 Build 0)  -->
<svg version="1.1" id="Layer_1" xmlns="http://www.w3.org/2000/svg" xmlns:xlink="http://www.w3.org/1999/xlink" x="0px" y="0px"
	 viewBox="0 0 10 9.9" style="enable-background:new 0 0 10 9.9;" xml:space="preserve">
<path d="M8.1,8.2C9,7.4,9.5,6.3,9.5,5c0-1.3-0.5-2.4-1.4-3.2c0,0,0,0,0,0C7.3,0.9,6.2,0.4,5,0.4h0l0,0h0c-2.5,0-4.5,2-4.5,4.5
	c0,1.3,0.5,2.4,1.4,3.3c0,0,0,0,0,0c0.7,0.7,1.6,1.1,2.7,1.2C4.7,9.5,4.9,9.6,5,9.6s0.3,0,0.4-0.1C6.4,9.4,7.4,8.9,8.1,8.2
	C8.1,8.3,8.1,8.2,8.1,8.2z M8,7.9C7.6,7.7,7.2,7.6,6.7,7.5C6.9,6.8,7,6,7,5.1h2.2C9.2,6.2,8.7,7.2,8,7.9z M5,9.2c-0.1,0-0.2,0-0.4,0
	C4.3,9,3.9,8.4,3.7,7.7C4.1,7.6,4.5,7.5,5,7.5c0.5,0,0.9,0,1.3,0.1C6.1,8.4,5.7,9,5.4,9.2C5.2,9.2,5.1,9.2,5,9.2z M4.1,9.1
	C3.4,8.9,2.8,8.6,2.2,8.2C2.6,8,3,7.8,3.4,7.7C3.6,8.3,3.8,8.8,4.1,9.1z M5,0.7L5,0.7c0.5,0,1,0.6,1.3,1.6C5.9,2.4,5.5,2.5,5,2.5
	c-0.5,0-0.9,0-1.3-0.1C4,1.4,4.5,0.7,5,0.7z M3.4,2.3C3,2.2,2.6,2,2.2,1.8c0.6-0.5,1.2-0.9,2-1C3.9,1.1,3.6,1.6,3.4,2.3z M9.2,4.8H7
	C7,4,6.9,3.2,6.7,2.5C7.2,2.4,7.6,2.2,8,2C8.7,2.8,9.2,3.7,9.2,4.8z M6.6,2.3C6.4,1.6,6.1,1.1,5.8,0.8c0.8,0.1,1.5,0.5,2,1
	C7.4,2,7,2.2,6.6,2.3z M5,2.7c0.5,0,0.9,0,1.4-0.1C6.6,3.2,6.7,4,6.7,4.8H3.3c0-0.8,0.1-1.6,0.3-2.2C4.1,2.7,4.5,2.7,5,2.7z
	 M6.7,5.1c0,0.8-0.1,1.6-0.3,2.3C5.9,7.3,5.5,7.2,5,7.2S4.1,7.3,3.6,7.4C3.4,6.7,3.3,5.9,3.3,5.1L6.7,5.1L6.7,5.1z M6.6,7.7
	C7,7.8,7.4,8,7.8,8.2C7.2,8.6,6.6,8.9,5.9,9.1C6.2,8.8,6.4,8.3,6.6,7.7z M2,2c0.4,0.2,0.9,0.4,1.3,0.5C3.1,3.2,3,4,3,4.8H0.8
	C0.8,3.7,1.3,2.8,2,2z M0.8,5.1H3C3,6,3.1,6.8,3.3,7.5C2.8,7.6,2.4,7.7,2,7.9C1.3,7.2,0.8,6.2,0.8,5.1z"/>
</svg>
